<svg height="471pt" viewBox="-19 0 471 471.99148" width="471pt" xmlns="http://www.w3.org/2000/svg"><path d="m339.023438 120.398438-114.527344-37.765626v-19.777343c16.058594-4.1875 26.238281-19.972657 23.425781-36.332031-2.816406-16.355469-17.6875-27.832032-34.226563-26.40625-16.535156 1.425781-29.222656 15.277343-29.199218 31.875 0 4.417968 3.582031 8 8 8 4.417968 0 8-3.582032 8-8 0-8.835938 7.164062-16 16-16 8.835937 0 16 7.164062 16 16 0 8.835937-7.164063 16-16 16-4.417969 0-8 3.582031-8 8v26.640624l-114.527344 37.765626c-4.199219 1.398437-6.46875 5.933593-5.074219 10.128906 1.398438 4.199218 5.933594 6.46875 10.128907 5.070312l117.472656-39.183594 117.472656 39.160157c4.195312 1.398437 8.730469-.875 10.128906-5.070313 1.394532-4.199218-.875-8.730468-5.074218-10.128906zm0 0" fill="#ac8168"/><path d="m432.496094 183.992188-88-64-80-24c0 26.503906-21.488282 56-48 56-26.511719 0-48-29.496094-48-56l-80 24-88 56 56 88 32-29.097657v237.097657h256v-234.183594l32 26.183594zm0 0" fill="#60a2d7"/></svg>