<?xml version="1.0" encoding="iso-8859-1"?>
<!-- Generator: Adobe Illustrator 19.0.0, SVG Export Plug-In . SVG Version: 6.00 Build 0)  -->
<svg version="1.1" id="Capa_1" xmlns="http://www.w3.org/2000/svg" xmlns:xlink="http://www.w3.org/1999/xlink" x="0px" y="0px"
	 viewBox="0 0 480.123 480.123" style="enable-background:new 0 0 480.123 480.123;" xml:space="preserve">
<g>
	<g>
		<rect x="232.123" y="312.123" width="16" height="16"/>
	</g>
</g>
<g>
	<g>
		<rect x="48.123" y="408.123" width="16" height="16"/>
	</g>
</g>
<g>
	<g>
		<rect x="56.123" y="376.123" width="16" height="16"/>
	</g>
</g>
<g>
	<g>
		<path d="M408.123,118.523c-0.8-3.2-2.4-5.6-5.6-6.4l-88-24c-0.8,0-1.6,0-2.4,0h-64v-13.6l22.4-29.6c0.8-1.6,1.6-3.2,1.6-4.8v-8
			c0-17.6-14.4-32-32-32c-17.6,0-32,14.4-32,32v8h16v-8c0-8.8,7.2-16,16-16s16,7.2,16,16v5.6l-22.4,29.6c-0.8,1.6-1.6,3.2-1.6,4.8
			v16h-64c-0.8,0-1.6,0-2.4,0l-88,24c-3.2,0.8-5.6,3.2-5.6,6.4l-56,336c-0.8,4,2.4,8.8,6.4,9.6c0.8,0,0.8,0,1.6,0h56
			c4,0,7.2-2.4,8-6.4l32-160.8v175.2c0,4.8,3.2,8,8,8h232c4.8,0,8-3.2,8-8v-154.4l24,140c0.8,4,4,6.4,8,6.4h56c4.8,0,8-3.2,8-8
			c0-0.8,0-0.8,0-1.6L408.123,118.523z M305.723,104.123l12.8,72h-22.4c-4.8,0-8,3.2-8,8c0,1.6,0,2.4,0.8,4l13.6,26.4l-48.8,44
			l32.8-154.4H305.723z M240.123,242.523l-23.2-106.4h46.4L240.123,242.523z M269.723,104.123l-4,16h-51.2l-4-16H269.723z
			 M175.323,104.123h18.4l32.8,151.2l-41.6-41.6l7.2-28c0.8-4-1.6-8.8-5.6-9.6c-0.8,0-1.6,0-1.6,0h-22.4L175.323,104.123z
			 M73.723,448.123h-40l50.4-302.4l36,71.2L73.723,448.123z M220.123,464.123l20-44l20,44H220.123z M352.123,400.123h-32v-16h32
			V400.123z M352.123,288.123h-32v-16h32V288.123z M352.923,221.723c0,0.8-0.8,1.6-0.8,3.2v32h-40c-4.8,0-8,3.2-8,8v32
			c0,4.8,3.2,8,8,8h40v64h-40c-4.8,0-8,3.2-8,8v32c0,4.8,3.2,8,8,8h40v48h-74.4v-0.8l-29.6-67.2c-1.6-4-6.4-5.6-10.4-4
			c-1.6,0.8-3.2,2.4-4,4l-30.4,67.2h-67.2v-48h40c4.8,0,8-3.2,8-8v-32c0-4.8-3.2-8-8-8h-40v-152c0-1.6,0-2.4-0.8-3.2l-44-87.2
			l66.4-18.4l-13.6,75.2c-0.8,4,2.4,8.8,6.4,9.6c0.8,0,0.8,0,1.6,0h21.6l-5.6,22.4c-0.8,2.4,0,5.6,2.4,8l61.6,61.6
			c4.8,4,11.2,4,16,0l69.6-61.6c2.4-2.4,3.2-6.4,1.6-9.6l-10.4-20.8h19.2c4.8,0,8-3.2,8-8c0-0.8,0-0.8,0-1.6l-13.6-75.2l67.2,18.4
			L352.923,221.723z M136.123,400.123v-16h32v16H136.123z M406.523,448.123l-38.4-223.2l28.8-74.4l49.6,297.6H406.523z"/>
	</g>
</g>
<g>
	<g>
		<rect x="416.123" y="416.123" width="16" height="16"/>
	</g>
</g>
<g>
	<g>
		<rect x="408.123" y="384.123" width="16" height="16"/>
	</g>
</g>
<g>
	<g>
		<rect x="232.123" y="352.123" width="16" height="16"/>
	</g>
</g>
<g>
	<g>
		<path d="M112.123,38.523c-0.8-3.2-3.2-5.6-6.4-6.4c-12.8-2.4-23.2-12-25.6-25.6c-0.8-4-4.8-7.2-9.6-6.4c-3.2,0.8-5.6,3.2-6.4,6.4
			c-2.4,13.6-12,23.2-25.6,25.6c-4,0.8-7.2,4.8-6.4,9.6c0.8,3.2,3.2,5.6,6.4,6.4c12.8,2.4,23.2,12,25.6,25.6c0.8,4,4.8,7.2,9.6,6.4
			c3.2-0.8,5.6-3.2,6.4-6.4c2.4-12.8,12-23.2,25.6-25.6C109.723,47.323,112.923,43.323,112.123,38.523z M72.123,51.323
			c-3.2-4.8-7.2-8-11.2-11.2c4-3.2,8-7.2,11.2-11.2c3.2,4.8,7.2,8,11.2,11.2C78.523,43.323,75.323,47.323,72.123,51.323z"/>
	</g>
</g>
<g>
</g>
<g>
</g>
<g>
</g>
<g>
</g>
<g>
</g>
<g>
</g>
<g>
</g>
<g>
</g>
<g>
</g>
<g>
</g>
<g>
</g>
<g>
</g>
<g>
</g>
<g>
</g>
<g>
</g>
</svg>
