<svg height="512pt" viewBox="0 0 512 512.01546" width="512pt" xmlns="http://www.w3.org/2000/svg"><path d="m498.566406 221.710938-25.347656 54.441406c-9.082031 18.929687-28.238281 30.953125-49.234375 30.890625-2.160156-.003907-4.292969.492187-6.230469 1.453125-.632812.273437-1.234375.617187-1.792968 1.023437-3.988282 2.667969-6.386719 7.148438-6.398438 11.945313v129.453125c-.011719 29.023437-23.539062 52.550781-52.566406 52.5625h-202.152344c-13.921875.011719-27.277344-5.515625-37.121094-15.359375s-15.371094-23.199219-15.359375-37.117188v-129.539062c-.019531-3.847656-1.570312-7.53125-4.308593-10.234375-2.734376-2.707031-6.4375-4.210938-10.285157-4.1875-20.882812.0625-39.941406-11.890625-48.980469-30.71875l-25.429687-54.613281c-11.292969-24.53125-2.230469-53.628907 20.992187-67.414063l6.230469-3.582031c43-24.554688 88.089844-45.257813 134.738281-61.867188 2.402344-.796875 4.851563-1.421875 7.339844-1.878906 10.742188-2.351562 21.925782-1.734375 32.34375 1.792969 8.550782 2.65625 17.417969 4.179687 26.367188 4.523437 5.035156.339844 9.898437.425782 14.589844.425782 10.796874-.039063 21.5625-1.070313 32.171874-3.070313 5.460938-1.023437 10.75-2.476563 16.042969-3.671875 6.050781-1.496094 12.316407-1.929688 18.515625-1.277344 16.886719 3.503906 33.277344 9.0625 48.8125 16.554688 16.296875 6.570312 32.339844 13.679687 48.128906 21.332031 17.664063 8.535156 34.558594 18.601563 52.136719 27.390625l5.121094 2.988281c23.617187 13.613281 33.007813 42.960938 21.675781 67.753907zm0 0" fill="#cad9fc"/><path d="m472.964844 221.710938-25.34375 54.441406c-6.316406 13.160156-17.667969 23.21875-31.488282 27.90625-.550781.25-1.121093.449218-1.707031.597656-5.203125 1.574219-10.605469 2.378906-16.042969 2.386719-7.957031.023437-14.402343 6.46875-14.421874 14.421875v129.453125c-.011719 29.023437-23.539063 52.550781-52.5625 52.5625h-176.554688c-13.921875.011719-27.277344-5.515625-37.121094-15.359375s-15.371094-23.199219-15.359375-37.117188v-129.539062c-.019531-3.847656-1.570312-7.53125-4.308593-10.234375-2.734376-2.707031-6.4375-4.210938-10.285157-4.1875-20.882812.0625-39.941406-11.890625-48.980469-30.71875l-25.429687-54.613281c-11.292969-24.53125-2.230469-53.628907 20.992187-67.414063l6.230469-3.582031c43-24.554688 88.089844-45.257813 134.738281-61.867188 2.402344-.796875 4.851563-1.421875 7.339844-1.878906 2.289063.429688 4.542969 1.027344 6.742188 1.792969 13.3125 3.777343 27.132812 5.449219 40.960937 4.949219 3.667969 0 7.335938-.171876 11.007813-.425782 7.101562-.457031 14.167968-1.339844 21.160156-2.644531 11.179688-3.503906 22.851562-5.175781 34.5625-4.949219 2.386719.339844 4.691406.765625 7.082031 1.277344 14.304688 3.941406 28.261719 9.050781 41.726563 15.277344 16.300781 6.570312 32.34375 13.679687 48.128906 21.332031 17.664062 8.535156 34.558594 18.601563 52.140625 27.390625l5.117187 2.988281c23.621094 13.613281 33.007813 42.960938 21.675782 67.753907zm0 0" fill="#e8edfc"/><path d="m392.496094 144.910156s-17.066406 38.144532-17.066406 110.933594v194.902344c-.019532 10.171875-8.261719 18.414062-18.433594 18.433594h-202.152344c-4.871094.007812-9.539062-1.925782-12.984375-5.367188-3.441406-3.441406-5.371094-8.113281-5.363281-12.980469v-194.988281c0-72.789062-17.066406-110.933594-17.066406-110.933594l65.960937-23.378906 1.367187-.511719c6.179688-2.015625 12.804688-2.253906 19.113282-.683593 12.25 2.941406 24.722656 4.855468 37.289062 5.71875 19.375 1.140624 38.8125-.382813 57.773438-4.523438 1.707031-.429688 3.414062-.769531 5.117187-1.195312 6.3125-1.570313 12.933594-1.332032 19.117188.683593zm0 0" fill="#cad9fc"/><path d="m366.894531 144.910156s-17.066406 38.144532-17.066406 110.933594v194.902344c-.015625 10.171875-8.257813 18.414062-18.429687 18.433594h-176.554688c-4.871094.007812-9.539062-1.925782-12.984375-5.367188-3.441406-3.441406-5.371094-8.113281-5.363281-12.980469v-194.988281c0-72.789062-17.066406-110.933594-17.066406-110.933594l65.960937-23.378906c18.960937 4.140625 38.398437 5.664062 57.769531 4.523438 12.570313-.863282 25.042969-2.777344 37.292969-5.71875 6.308594-1.570313 12.933594-1.332032 19.113281.683593l1.367188.511719zm0 0" fill="#e8edfc"/><path d="m467.589844 207.289062-25.34375 54.359376c-4.414063 9.054687-14.835938 13.464843-24.40625 10.324218l-42.410156-13.484375v-2.644531c-.910157-35.867188 4.191406-71.632812 15.101562-105.8125 1.195312-3.414062 1.964844-5.121094 1.964844-5.121094l67.496094 38.65625c8.296874 4.746094 11.589843 15.042969 7.597656 23.722656zm0 0" fill="#cad9fc"/><path d="m441.988281 198.925781-25.34375 54.359375c-4.410156 9.054688-14.832031 13.464844-24.40625 10.324219l-16.808593-5.375v-2.390625c-.910157-35.867188 4.191406-71.632812 15.101562-105.8125l43.863281 25.171875c8.292969 4.75 11.589844 15.042969 7.59375 23.722656zm0 0" fill="#e8edfc"/><path d="m136.496094 255.84375v2.644531l-42.410156 13.484375c-9.574219 3.140625-19.996094-1.269531-24.40625-10.324218l-25.34375-54.359376c-3.996094-8.679687-.699219-18.976562 7.59375-23.722656l67.5-38.65625s17.066406 38.144532 17.066406 110.933594zm0 0" fill="#e8edfc"/><path d="m315.695312 119.3125s0 59.730469-59.734374 59.730469c-59.730469 0-59.730469-59.730469-59.730469-59.730469 3.242187-.085938 6.484375.257812 9.640625 1.023438 32.902344 8.105468 67.28125 8.105468 100.179687 0 3.15625-.765626 6.398438-1.109376 9.644531-1.023438zm0 0" fill="#7facfa"/><path d="m40.582031 145.082031-6.230469 3.585938c-23.480468 16.253906-32.257812 46.800781-20.992187 73.042969l25.429687 54.613281c9.039063 18.828125 28.097657 30.78125 48.980469 30.71875 3.847657-.023438 7.550781 1.480469 10.285157 4.1875 2.738281 2.703125 4.289062 6.386719 4.308593 10.234375v129.539062c-.011719 13.917969 5.515625 27.273438 15.359375 37.117188s23.199219 15.371094 37.121094 15.359375h25.597656c-13.921875.011719-27.273437-5.515625-37.121094-15.359375-9.84375-9.84375-15.367187-23.199219-15.359374-37.117188v-129.539062c-.019532-3.847656-1.566407-7.53125-4.304688-10.234375-2.738281-2.707031-6.4375-4.210938-10.285156-4.1875-20.886719.0625-39.945313-11.890625-48.984375-30.71875l-25.425781-54.613281c-11.265626-26.242188-2.488282-56.789063 20.992187-73.042969l6.226563-3.585938" fill="#fff"/><path d="m356.996094 477.75h-202.152344c-14.839844-.019531-26.867188-12.046875-26.882812-26.882812v-194.988282c0-69.734375-16.164063-107.09375-16.332032-107.46875-.960937-2.171875-.972656-4.644531-.035156-6.828125.9375-2.183593 2.738281-3.878906 4.976562-4.679687l67.351563-23.921875c7.726563-2.535157 16.003906-2.871094 23.910156-.972657 31.613281 7.78125 64.640625 7.78125 96.25 0 7.851563-1.894531 16.074219-1.578124 23.75.917969l67.519531 23.980469c2.238282.800781 4.042969 2.496094 4.980469 4.683594s.917969 4.664062-.046875 6.835937c-.332031.757813-16.324218 38.09375-16.324218 107.457031v194.902344c-.015626 14.882813-12.078126 26.945313-26.964844 26.964844zm-226.542969-327.664062c10.425781 34.273437 15.34375 69.980468 14.574219 105.796874v194.984376c.007812 5.417968 4.398437 9.808593 9.816406 9.816406h202.152344c5.464844-.007813 9.890625-4.4375 9.898437-9.898438v-194.902344c-.769531-35.816406 4.152344-71.523437 14.574219-105.796874l-59.179688-21.019532c-4.644531-1.460937-9.597656-1.613281-14.320312-.441406-34.160156 8.40625-69.851562 8.40625-104.015625 0-4.78125-1.171875-9.792969-1-14.484375.496094zm0 0" fill="#428dff"/><path d="m255.960938 187.617188c-54 0-68.265626-44.65625-68.265626-68.269532 0-4.710937 3.820313-8.53125 8.535157-8.53125 4.710937 0 8.53125 3.820313 8.53125 8.53125.035156 5.21875 1.75 51.203125 51.199219 51.203125 49.449218 0 51.167968-45.984375 51.199218-51.226562-.066406-2.285157.816406-4.496094 2.4375-6.105469 1.621094-1.613281 3.839844-2.476562 6.121094-2.390625 4.703125.007813 8.507812 3.820313 8.511719 8.519531 0 23.613282-14.269531 68.269532-68.269531 68.269532zm0 0" fill="#428dff"/><path d="m424.152344 281.472656c-3.019532 0-6.019532-.46875-8.898438-1.386718l-42.410156-13.488282c-2.90625-.921875-5.097656-3.324218-5.753906-6.300781-.652344-2.980469.332031-6.078125 2.585937-8.136719 2.25-2.054687 5.425781-2.75 8.332031-1.828125l42.410157 13.488281c5.464843 1.828126 11.445312-.605468 14.078125-5.730468l25.355468-54.425782c2.148438-4.71875.296876-10.300781-4.25-12.800781l-67.339843-38.511719c-2.695313-1.488281-4.375-4.3125-4.40625-7.390624-.027344-3.074219 1.605469-5.929688 4.269531-7.46875 2.664062-1.535157 5.953125-1.519532 8.601562.042968l67.476563 38.59375c12.117187 6.976563 16.933594 22.03125 11.117187 34.746094l-25.359374 54.425781c-4.730469 9.945313-14.792969 16.25-25.808594 16.171875zm0 0" fill="#428dff"/><path d="m87.769531 281.472656c-11.015625.082032-21.082031-6.230468-25.808593-16.183594l-25.359376-54.414062c-5.804687-12.660156-1.050781-27.660156 10.984376-34.664062l67.609374-38.671876c2.648438-1.5625 5.9375-1.578124 8.601563-.042968 2.667969 1.539062 4.296875 4.394531 4.269531 7.472656-.027344 3.074219-1.710937 5.898438-4.40625 7.386719l-67.472656 38.59375c-4.46875 2.527343-6.257812 8.054687-4.117188 12.71875l25.359376 54.417969c2.632812 5.125 8.609374 7.558593 14.074218 5.734374l42.410156-13.488281c2.90625-.921875 6.082032-.226562 8.335938 1.828125 2.25 2.058594 3.234375 5.15625 2.582031 8.136719-.652343 2.976563-2.847656 5.378906-5.753906 6.300781l-42.410156 13.488282c-2.875.917968-5.878907 1.386718-8.898438 1.386718zm0 0" fill="#428dff"/><path d="m178.1875 96.925781c-34.5 12.261719-68.148438 26.796875-100.722656 43.515625-11.023438 5.65625-21.917969 11.554688-32.679688 17.703125l-8.46875-14.816406c10.980469-6.273437 22.097656-12.296875 33.355469-18.074219 33.246094-17.058594 67.589844-31.894531 102.800781-44.410156zm0 0" fill="#fff"/><g fill="#428dff"><path d="m135.515625 104.203125c1.800781 4.320313 6.726563 6.40625 11.082031 4.691406 10.449219-4.203125 20.976563-8.191406 31.589844-11.96875l-5.714844-16.082031c-10.828125 3.855469-21.578125 7.925781-32.242187 12.21875-2.109375.84375-3.792969 2.496094-4.679688 4.585938-.886719 2.09375-.898437 4.453124-.035156 6.554687zm0 0"/><path d="m36.320312 143.328125 8.464844 14.816406c10.757813-6.144531 21.652344-12.042969 32.683594-17.703125l7.53125-3.820312c4.195312-2.121094 5.886719-7.230469 3.785156-11.433594-2.105468-4.203125-7.210937-5.914062-11.421875-3.828125l-7.6875 3.898437c-11.253906 5.769532-22.371093 11.792969-33.355469 18.070313zm0 0"/><path d="m115.519531 122.132812c2.023438-.960937 3.617188-2.636718 4.476563-4.707031l.414062-1.578125c.105469-.566406.132813-1.144531.085938-1.714844.03125-.542968-.023438-1.085937-.152344-1.613281-.140625-.554687-.316406-1.097656-.527344-1.628906-1.429687-3.15625-4.613281-5.144531-8.074218-5.046875-3.464844.097656-6.527344 2.269531-7.773438 5.5-.363281 1.066406-.515625 2.191406-.457031 3.316406.03125 1.117188.285156 2.214844.742187 3.234375.976563 2.03125 2.679688 3.621094 4.769532 4.460938 2.117187.746093 4.433593.667969 6.496093-.222657zm0 0"/><path d="m357.003906 512.015625h-202.148437c-33.683594-.046875-60.976563-27.347656-61.015625-61.03125v-129.535156c0-1.535157-.613282-3.003907-1.707032-4.082031-1.144531-1.144532-2.703124-1.78125-4.324218-1.769532h-.011719c-24.171875.007813-46.207031-13.832031-56.703125-35.605468l-25.457031-54.683594c-13.113281-28.488282-2.628907-62.277344 24.308593-78.335938l6.375-3.648437c4.09375-2.335938 9.308594-.914063 11.644532 3.179687 2.339844 4.09375.914062 9.308594-3.179688 11.644532l-6.191406 3.535156c-19.371094 11.59375-26.902344 35.914062-17.480469 56.429687l25.421875 54.628907c7.664063 15.796874 23.6875 25.816406 41.242188 25.792968h.035156c6.140625-.023437 12.039062 2.40625 16.375 6.753906 4.3125 4.273438 6.730469 10.09375 6.714844 16.164063v129.535156c.027344 24.265625 19.6875 43.929688 43.953125 43.960938h202.148437c24.3125-.03125 44.007813-19.738281 44.03125-44.050781v-129.449219c.011719-12.644531 10.253906-22.894531 22.898438-22.917969h.050781c17.691406.019531 33.832031-10.097656 41.53125-26.027344l25.324219-54.398437c9.621094-20.839844 1.640625-45.574219-18.339844-56.867188l-4.984375-2.84375c-7.679687-3.835937-15.648437-8.167969-23.617187-12.5-9.125-4.972656-18.558594-10.105469-28-14.65625-15.589844-7.507812-31.597657-14.617187-47.582032-21.117187-2.660156-1.078125-5.34375-2.203125-8.058594-3.339844-12.332031-5.8125-25.34375-10.050781-38.734374-12.617188-7.359376-.5-14.746094.390626-21.773438 2.632813-3.335938.816406-6.683594 1.632813-10.082031 2.265625-11.109375 2.097656-22.386719 3.175781-33.691407 3.21875-14.753906.488281-29.492187-1.339844-43.675781-5.421875-11.144531-3.699219-23.191406-3.652344-34.304687.128906-2.914063 1.015625-6.148438.382813-8.460938-1.660156s-3.34375-5.171875-2.695312-8.1875c.648437-3.015625 2.875-5.449219 5.824218-6.359375 14.621094-4.949219 30.457032-4.980469 45.097657-.085938 12.429687 3.457032 25.316406 4.984376 38.207031 4.523438 10.261719-.042969 20.496094-1.027344 30.578125-2.933594 3.082031-.574218 6.117187-1.316406 9.140625-2.058594 9.109375-2.816406 18.683594-3.824218 28.183594-2.96875 14.855468 2.726563 29.300781 7.359376 42.972656 13.785157 2.660156 1.109375 5.285156 2.210937 7.894531 3.273437 16.316407 6.632813 32.65625 13.882813 48.566407 21.550782 9.8125 4.734374 19.441406 9.96875 28.75 15.039062 7.789062 4.238281 15.582031 8.480469 23.515624 12.449219l5.566407 3.167969c27.351562 15.917968 38.226562 49.949218 25.171875 78.78125l-25.355469 54.460937c-10.535156 21.902344-32.6875 35.832031-56.992187 35.835937h-.007813c-3.226563.011719-5.835937 2.625-5.851563 5.847657v129.453125c-.035156 33.730468-27.367187 61.070312-61.097656 61.113281zm0 0"/><path d="m255.960938 102.28125c-4.710938 0-8.53125-3.820312-8.53125-8.53125v-26.976562c.050781-7.695313 5.363281-14.351563 12.855468-16.109376 8.683594-2.265624 14.125-10.867187 12.460938-19.683593-1.351563-6.882813-6.734375-12.265625-13.617188-13.621094-4.996094-.933594-10.148437.402344-14.058594 3.644531-3.910156 3.246094-6.171874 8.0625-6.175781 13.144532 0 4.714843-3.820312 8.535156-8.53125 8.535156-4.714843 0-8.535156-3.820313-8.535156-8.535156 0-17.734376 13.570313-32.515626 31.242187-34.023438 17.667969-1.507812 33.550782 10.761719 36.550782 28.238281 3.003906 17.476563-7.875 34.34375-25.035156 38.820313l-.089844 26.566406c0 4.710938-3.820313 8.53125-8.535156 8.53125zm0 0"/></g></svg>