<?xml version="1.0" encoding="iso-8859-1"?>
<!-- Generator: Adobe Illustrator 19.0.0, SVG Export Plug-In . SVG Version: 6.00 Build 0)  -->
<svg version="1.1" id="Capa_1" xmlns="http://www.w3.org/2000/svg" xmlns:xlink="http://www.w3.org/1999/xlink" x="0px" y="0px"
	 viewBox="0 0 512 512" style="enable-background:new 0 0 512 512;" xml:space="preserve">
<rect x="177.9" y="104.14" style="fill:#2A496E;" width="156.2" height="407.86"/>
<polygon style="fill:#337AB5;" points="429.559,130.169 334.102,104.136 299.39,104.136 256,303.729 212.61,104.136 
	177.898,104.136 82.441,130.169 21.695,494.644 82.441,494.644 134.508,234.305 134.508,512 220.698,512 256,433.898 290.399,512 
	386.169,512 386.169,242.983 429.559,494.644 490.305,494.644 "/>
<g>
	<path style="fill:#266599;" d="M82.441,130.169L82.441,130.169c4.287-2.143,9.502-0.408,11.646,3.879l44.301,88.611
		c2.143,4.287,0.408,9.502-3.879,11.646l0,0c-4.287,2.143-9.502,0.408-11.646-3.879l-44.301-88.619
		C76.418,137.52,78.154,132.313,82.441,130.169z"/>
	<path style="fill:#266599;" d="M381.188,231.962l37.159-96.577c1.718-4.469,6.743-6.699,11.212-4.981l0,0
		c4.469,1.718,6.699,6.743,4.981,11.212l-37.159,96.577c-1.718,4.469-6.743,6.699-11.212,4.981l0,0
		C381.7,241.456,379.47,236.44,381.188,231.962z"/>
</g>
<g>
	<rect x="247.32" y="338.44" style="fill:#2A496E;" width="17.356" height="17.356"/>
	<rect x="47.729" y="442.58" style="fill:#2A496E;" width="17.356" height="17.356"/>
	<rect x="56.41" y="407.86" style="fill:#2A496E;" width="17.356" height="17.356"/>
	<rect x="446.92" y="451.25" style="fill:#2A496E;" width="17.356" height="17.356"/>
	<rect x="438.24" y="416.54" style="fill:#2A496E;" width="17.356" height="17.356"/>
	<rect x="247.32" y="381.83" style="fill:#2A496E;" width="17.356" height="17.356"/>
</g>
<g>
	<rect x="134.51" y="407.86" style="fill:#4398D1;" width="52.07" height="34.712"/>
	<rect x="334.1" y="407.86" style="fill:#4398D1;" width="52.07" height="34.712"/>
	<rect x="334.1" y="286.37" style="fill:#4398D1;" width="52.07" height="34.712"/>
</g>
<g>
	<path style="fill:#F9B44D;" d="M264.678,104.136h-17.356V78.102c0-1.874,0.607-3.705,1.736-5.207L273.356,40.5v-5.788
		c0-9.589-7.767-17.356-17.356-17.356s-17.356,7.767-17.356,17.356v8.678h-17.356v-8.678C221.288,15.542,236.83,0,256,0
		s34.712,15.542,34.712,34.712v8.678c0,1.874-0.607,3.705-1.736,5.207l-24.298,32.395V104.136z"/>
	<rect x="177.9" y="104.14" style="fill:#F9B44D;" width="156.2" height="34.712"/>
	<path style="fill:#F9B44D;" d="M73.763,78.102L73.763,78.102C70.795,60.303,56.849,46.358,39.051,43.39l0,0
		C56.85,40.422,70.795,26.477,73.763,8.678l0,0c2.968,17.799,16.913,31.744,34.712,34.712l0,0
		C90.676,46.358,76.731,60.303,73.763,78.102z"/>
</g>
<g>
	<polygon style="fill:#4398D1;" points="256,303.729 186.576,234.305 195.254,199.593 160.542,199.593 177.898,104.136 
		212.61,104.136 	"/>
	<polygon style="fill:#4398D1;" points="256,303.729 334.102,234.305 316.746,199.593 351.458,199.593 334.102,104.136 
		299.39,104.136 	"/>
</g>
<g>
</g>
<g>
</g>
<g>
</g>
<g>
</g>
<g>
</g>
<g>
</g>
<g>
</g>
<g>
</g>
<g>
</g>
<g>
</g>
<g>
</g>
<g>
</g>
<g>
</g>
<g>
</g>
<g>
</g>
</svg>
