<?xml version="1.0" encoding="iso-8859-1"?>
<!-- Generator: Adobe Illustrator 19.0.0, SVG Export Plug-In . SVG Version: 6.00 Build 0)  -->
<svg version="1.1" id="Capa_1" xmlns="http://www.w3.org/2000/svg" xmlns:xlink="http://www.w3.org/1999/xlink" x="0px" y="0px"
	 viewBox="0 0 512.004 512.004" style="enable-background:new 0 0 512.004 512.004;" xml:space="preserve">
<rect x="179.329" y="102.549" style="fill:#2A496E;" width="153.562" height="400.966"/>
<polygon style="fill:#337AB5;" points="426.692,128.1 332.848,102.506 298.724,102.506 256.068,298.724 213.412,102.506 
	179.287,102.506 85.444,128.1 25.725,486.41 85.444,486.41 136.631,230.474 136.631,503.472 221.09,503.472 256.068,426.692 
	290.192,503.472 384.036,503.472 384.036,239.005 426.692,486.41 486.41,486.41 "/>
<g>
	<path style="fill:#266599;" d="M85.444,128.1L85.444,128.1c4.266-1.706,9.384,0,11.091,3.412l43.509,87.018
		c1.706,4.266,0,9.384-3.412,11.091l0,0c-4.266,1.706-9.384,0-11.091-3.412L82.031,139.19
		C79.472,134.925,81.178,129.806,85.444,128.1z"/>
	<path style="fill:#266599;" d="M378.917,227.915l36.684-94.696c1.706-4.266,6.825-6.825,11.091-5.119l0,0
		c4.266,1.706,6.825,6.825,5.119,11.091l-36.684,94.696c-1.706,5.119-6.825,6.825-11.091,5.119l0,0
		C379.77,237.299,377.211,232.18,378.917,227.915z"/>
</g>
<g>
	<rect x="247.579" y="332.891" style="fill:#2A496E;" width="17.062" height="17.062"/>
	<rect x="51.276" y="435.265" style="fill:#2A496E;" width="17.062" height="17.062"/>
	<rect x="59.807" y="401.141" style="fill:#2A496E;" width="17.062" height="17.062"/>
	<rect x="443.797" y="443.797" style="fill:#2A496E;" width="17.062" height="17.062"/>
	<rect x="435.266" y="409.672" style="fill:#2A496E;" width="17.062" height="17.062"/>
	<rect x="247.579" y="375.547" style="fill:#2A496E;" width="17.062" height="17.062"/>
</g>
<g>
	<rect x="136.673" y="401.141" style="fill:#4398D1;" width="51.187" height="34.125"/>
	<rect x="332.891" y="401.141" style="fill:#4398D1;" width="51.187" height="34.125"/>
	<rect x="332.891" y="281.704" style="fill:#4398D1;" width="51.187" height="34.125"/>
</g>
<g>
	<path style="fill:#F9B44D;" d="M264.599,102.506h-17.062V76.912c0-1.706,0.853-3.412,1.706-5.119l23.887-31.565v-5.972
		c0-9.384-7.678-17.062-17.062-17.062c-9.384,0-17.062,7.678-17.062,17.062v8.531h-17.062v-8.531
		c0-18.769,15.356-34.125,34.125-34.125s34.125,15.356,34.125,34.125v8.531c0,1.706-0.853,3.412-1.706,5.119l-23.887,31.565V102.506
		z"/>
	<rect x="179.329" y="102.549" style="fill:#F9B44D;" width="153.562" height="34.125"/>
	<path style="fill:#F9B44D;" d="M76.912,76.912L76.912,76.912c-2.559-17.916-16.209-31.565-34.125-34.125l0,0
		c17.916-2.559,31.565-16.209,34.125-34.125l0,0c2.559,17.916,16.209,31.565,34.125,34.125l0,0
		C93.122,45.347,79.472,58.997,76.912,76.912z"/>
</g>
<g>
	<polygon style="fill:#4398D1;" points="256.068,298.724 187.818,230.474 196.349,196.349 162.224,196.349 179.287,102.506 
		213.412,102.506 	"/>
	<polygon style="fill:#4398D1;" points="256.068,298.724 332.848,230.474 315.786,196.349 349.911,196.349 332.848,102.506 
		298.724,102.506 	"/>
</g>
<rect x="247.579" y="332.891" width="17.062" height="17.062"/>
<rect x="51.276" y="435.265" width="17.062" height="17.062"/>
<rect x="59.807" y="401.141" width="17.062" height="17.062"/>
<path d="M435.223,126.393c-0.853-3.412-2.559-5.972-5.972-6.825l-93.843-25.594c-0.853,0-1.706,0-2.559,0h-68.25V79.472
	l23.887-31.565c0.853-1.706,1.706-3.412,1.706-5.119v-8.531c0-18.769-15.356-34.125-34.125-34.125s-34.125,15.356-34.125,34.125
	v8.531h17.062v-8.531c0-9.384,7.678-17.062,17.062-17.062c9.384,0,17.062,7.678,17.062,17.062v5.972l-23.887,31.565
	c-0.853,1.706-1.706,3.412-1.706,5.119v17.062h-68.25c-0.853,0-1.706,0-2.559,0l-93.843,25.594
	c-3.412,0.853-5.972,3.412-5.972,6.825l-59.718,358.31c-0.853,4.266,2.559,9.384,6.825,10.237c0.853,0,0.853,0,1.706,0h59.718
	c4.266,0,7.678-2.559,8.531-6.825L128.1,316.639v186.833c0,5.119,3.412,8.531,8.531,8.531h247.405c5.119,0,8.531-3.412,8.531-8.531
	V338.82l25.594,149.296c0.853,4.266,4.266,6.825,8.531,6.825h59.718c5.119,0,8.531-3.413,8.531-8.531c0-0.853,0-0.853,0-1.706
	L435.223,126.393z M326.023,111.037l13.65,76.781h-23.887c-5.119,0-8.531,3.412-8.531,8.531c0,1.706,0,2.559,0.853,4.266
	l14.503,28.153l-52.04,46.922l34.978-164.652C305.549,111.037,326.023,111.037,326.023,111.037z M256.068,258.627l-24.74-113.465
	h49.481L256.068,258.627z M287.633,111.037l-4.266,17.062h-54.6l-4.266-17.062H287.633z M186.965,111.037h19.622l34.978,161.24
	l-44.362-44.362l7.678-29.859c0.853-4.266-1.706-9.384-5.972-10.237c-0.853,0-1.706,0-1.706,0h-23.887L186.965,111.037z
	 M78.619,477.879H35.963l53.747-322.479l38.39,75.928L78.619,477.879z M234.74,494.941l21.328-46.922l21.328,46.922H234.74z
	 M375.504,426.692H341.38v-17.062h34.125V426.692z M375.504,307.255H341.38v-17.062h34.125V307.255z M376.358,236.446
	c0,0.853-0.853,1.706-0.853,3.412v34.125h-42.656c-5.119,0-8.531,3.412-8.531,8.531v34.125c0,5.119,3.412,8.531,8.531,8.531h42.656
	v68.25h-42.656c-5.119,0-8.531,3.413-8.531,8.531v34.125c0,5.119,3.412,8.531,8.531,8.531h42.656v51.187h-79.34v-0.853
	l-31.565-71.662c-1.706-4.266-6.825-5.972-11.091-4.266c-1.706,0.853-3.412,2.559-4.266,4.266l-32.419,71.662h-71.662v-51.187
	h42.656c5.119,0,8.531-3.413,8.531-8.531v-34.125c0-5.119-3.412-8.531-8.531-8.531h-42.656V230.474c0-1.706,0-2.559-0.853-3.412
	l-46.922-92.99l70.809-19.622l-14.503,80.193c-0.853,4.266,2.559,9.384,6.825,10.237c0.853,0,0.853,0,1.706,0h23.034l-5.972,23.887
	c-0.853,2.559,0,5.972,2.559,8.531l65.69,65.69l0,0c5.119,4.266,11.944,4.266,17.062,0l0,0l74.221-65.69
	c2.559-2.559,3.413-6.825,1.706-10.237l-11.091-22.181h20.475c5.119,0,8.531-3.412,8.531-8.531c0-0.853,0-0.853,0-1.706
	l-14.503-80.193l71.662,19.622L376.358,236.446z M145.162,426.692v-17.062h34.125v17.062H145.162z M433.517,477.879l-40.95-238.02
	l30.712-79.34l52.893,317.361H433.517z"/>
<rect x="443.797" y="443.797" width="17.062" height="17.062"/>
<rect x="435.266" y="409.672" width="17.062" height="17.062"/>
<rect x="247.579" y="375.547" width="17.062" height="17.062"/>
<path d="M41.081,51.319c13.65,2.559,24.74,12.797,27.3,27.3c0.853,4.266,5.119,7.678,10.237,6.825
	c3.412-0.853,5.972-3.412,6.825-6.825c2.559-13.65,12.797-24.74,27.3-27.3c4.266-0.853,7.678-5.119,6.825-10.237
	c-0.853-3.412-3.412-5.972-6.825-6.825c-13.65-2.559-24.74-12.797-27.3-27.3c-0.853-4.266-5.119-7.678-10.237-6.825
	c-3.412,0.853-5.972,3.412-6.825,6.825c-2.559,14.503-12.797,24.74-27.3,27.3c-4.266,0.853-7.678,5.119-6.825,10.237
	C35.11,47.906,37.669,50.466,41.081,51.319z M76.912,30.844c3.412,5.119,7.678,8.531,11.944,11.944
	c-5.119,3.412-8.531,7.678-11.944,11.944C73.5,49.613,69.234,46.2,64.969,42.788C69.234,39.375,73.5,35.11,76.912,30.844z"/>
<g>
</g>
<g>
</g>
<g>
</g>
<g>
</g>
<g>
</g>
<g>
</g>
<g>
</g>
<g>
</g>
<g>
</g>
<g>
</g>
<g>
</g>
<g>
</g>
<g>
</g>
<g>
</g>
<g>
</g>
</svg>
