<svg height="512pt" viewBox="0 -112 464 464" width="512pt" xmlns="http://www.w3.org/2000/svg"><path d="m464 56-64 32v-64h64zm0 0" fill="#ac8168"/><path d="m16 208h352v32h-368v-16c0-8.835938 7.164062-16 16-16zm0 0" fill="#ac8168"/><path d="m416 0h-192c-114.875 0-208 93.125-208 208h368c0-22.089844 21.488281-40 48-40zm-32 128h-232c0-44.183594 35.816406-80 80-80h152zm0 0" fill="#e9cfb7"/><path d="m208 96h32c8.835938 0 16 7.164062 16 16v16h-64v-16c0-8.835938 7.164062-16 16-16zm0 0" fill="#ac8168"/></svg>