<svg height="464pt" viewBox="-56 0 464 464" width="464pt" xmlns="http://www.w3.org/2000/svg"><path d="m0 0h352v464h-352zm0 0" fill="#ced8dc"/><path d="m176 376c-61.855469 0-112-50.144531-112-112s50.144531-112 112-112 112 50.144531 112 112c-.066406 61.828125-50.171875 111.933594-112 112zm0-208c-53.019531 0-96 42.980469-96 96s42.980469 96 96 96 96-42.980469 96-96c-.058594-52.996094-43.003906-95.941406-96-96zm0 0" fill="#fff"/><path d="m248 264c0 39.765625-32.234375 72-72 72s-72-32.234375-72-72 32.234375-72 72-72 72 32.234375 72 72zm0 0" fill="#688cba"/><path d="m0 0h352v96h-352zm0 0" fill="#7e8589"/><path d="m232 32h88v32h-88zm0 0" fill="#ced8dc"/><path d="m176 64c-8.835938 0-16-7.164062-16-16s7.164062-16 16-16 16 7.164062 16 16-7.164062 16-16 16zm0-16" fill="#fff"/><path d="m0 0h112v96h-112zm0 0" fill="#414649"/><path d="m80 56h-48c-4.417969 0-8-3.582031-8-8s3.582031-8 8-8h48c4.417969 0 8 3.582031 8 8s-3.582031 8-8 8zm0 0" fill="#7e8589"/><path d="m0 432h352v32h-352zm0 0" fill="#7e8589"/><g fill="#a3d4f7"><path d="m224 288c-13.253906 0-24-10.746094-24-24 0 13.253906-10.746094 24-24 24s-24-10.746094-24-24c0 13.253906-10.746094 24-24 24s-24-10.746094-24-24c0 39.765625 32.234375 72 72 72s72-32.234375 72-72c0 13.253906-10.746094 24-24 24zm0 0"/><path d="m160 232c0 4.417969-3.582031 8-8 8s-8-3.582031-8-8 3.582031-8 8-8 8 3.582031 8 8zm0 0"/></g></svg>