<svg height="512" viewBox="0 0 64 64" width="512" xmlns="http://www.w3.org/2000/svg"><g id="Washing_machine" data-name="Washing machine"><path d="m52 26v31a4 4 0 0 1 -4 4h-32a4 4 0 0 1 -4-4v-31z" fill="#d1e7f8"/><path d="m14 57v-31h-2v31a4 4 0 0 0 4 4h2a4 4 0 0 1 -4-4z" fill="#bddbff"/><path d="m52 20v6h-40v-6a4 4 0 0 1 4-4h32a4 4 0 0 1 4 4z" fill="#57a4ff"/><path d="m18 16h-2a4 4 0 0 0 -4 4v6h2v-6a4 4 0 0 1 4-4z" fill="#2488ff"/><path d="m27 19h10v4h-10z" fill="#ff3051"/><circle cx="32" cy="44" fill="#ffdaaa" r="12"/><path d="m34.332 43c-2.332 0-2.332 2-4.667 2s-2.333-2-4.665-2h-.931a7.994 7.994 0 1 0 15.862 2h-.931c-2.334 0-2.334-2-4.668-2z" fill="#2488ff"/><path d="m32 36a8.008 8.008 0 0 0 -7.931 7h.931c2.332 0 2.332 2 4.665 2s2.335-2 4.667-2 2.334 2 4.668 2h.931a7.954 7.954 0 0 0 -7.931-9z" fill="#a7a9ac"/><path d="m61.5 5.43-.3-.272a14.372 14.372 0 0 0 -18.431.029l-.27.245a1 1 0 0 0 1.348 1.479l.236-.217a12.355 12.355 0 0 1 15.8-.028l.268.244a1 1 0 0 0 1.349-1.48z"/><path d="m47.922 11.3a1 1 0 1 0 1.278 1.539 4.37 4.37 0 0 1 5.594 0 1 1 0 1 0 1.284-1.539 6.367 6.367 0 0 0 -8.156 0z"/><path d="m48 15h-32a5.006 5.006 0 0 0 -5 5v37a5.006 5.006 0 0 0 5 5h32a5.006 5.006 0 0 0 5-5v-37a5.006 5.006 0 0 0 -5-5zm-32 2h32a3 3 0 0 1 3 3v5h-38v-5a3 3 0 0 1 3-3zm32 43h-32a3 3 0 0 1 -3-3v-30h38v30a3 3 0 0 1 -3 3z"/><path d="m27 24h10a1 1 0 0 0 1-1v-4a1 1 0 0 0 -1-1h-10a1 1 0 0 0 -1 1v4a1 1 0 0 0 1 1zm1-4h8v2h-8z"/><path d="m41 20h2a1 1 0 0 0 0-2h-2a1 1 0 0 0 0 2z"/><path d="m41 24h2a1 1 0 0 0 0-2h-2a1 1 0 0 0 0 2z"/><path d="m21 20h2a1 1 0 0 0 0-2h-2a1 1 0 0 0 0 2z"/><path d="m21 24h2a1 1 0 0 0 0-2h-2a1 1 0 0 0 0 2z"/><path d="m32 31a13 13 0 1 0 13 13 13.015 13.015 0 0 0 -13-13zm0 24a11 11 0 1 1 11-11 11.013 11.013 0 0 1 -11 11z"/><path d="m32 35a9 9 0 1 0 9 9 9.01 9.01 0 0 0 -9-9zm0 16a7.008 7.008 0 0 1 -7-7 2.258 2.258 0 0 1 1.681.759 4.207 4.207 0 0 0 5.967 0 2.248 2.248 0 0 1 3.368 0 4.225 4.225 0 0 0 2.693 1.225 7.008 7.008 0 0 1 -6.709 5.016zm5.316-7.759a4.208 4.208 0 0 0 -5.968 0 2.244 2.244 0 0 1 -3.365 0 4.224 4.224 0 0 0 -2.692-1.225 7 7 0 0 1 13.709 1.984 2.267 2.267 0 0 1 -1.684-.759z"/><path d="m9 5h-2v-2a1 1 0 0 0 -2 0v2h-2a1 1 0 0 0 0 2h2v2a1 1 0 0 0 2 0v-2h2a1 1 0 0 0 0-2z"/><path d="m13 9h2v2a1 1 0 0 0 2 0v-2h2a1 1 0 0 0 0-2h-2v-2a1 1 0 0 0 -2 0v2h-2a1 1 0 0 0 0 2z"/><path d="m48 29h-3a1 1 0 0 0 0 2h2v2a1 1 0 0 0 2 0v-3a1 1 0 0 0 -1-1z"/><path d="m58.706 8.292a10.377 10.377 0 0 0 -13.412 0 1 1 0 0 0 1.349 1.474 8.343 8.343 0 0 1 10.716 0 1 1 0 0 0 1.349-1.474z"/></g></svg>